<svg xmlns="http://www.w3.org/2000/svg" viewBox="0 0 603.63 95.9"><defs><style>.cls-1{fill:#232323;}</style></defs><title>Asset 1</title><g id="Layer_2" data-name="Layer 2"><g id="Layer_1-2" data-name="Layer 1"><polygon class="cls-1" points="14.64 37.62 48.8 3.05 39.45 3.05 7.12 35.59 7.12 3.05 0 3.05 0 74.22 7.12 74.22 7.12 39.75 40.47 74.22 49.82 74.22 14.64 37.62 14.64 37.62"/><path class="cls-1" d="M97.1,33.35c-4.68-7.42-11.49-11.19-20.54-11.19A25.38,25.38,0,0,0,58,29.89,26,26,0,0,0,50.33,48.8,26,26,0,0,0,58,67.71a25.34,25.34,0,0,0,18.61,7.73c9,0,15.86-3.76,20.54-11.18v10h6.71V23.38H97.1v10ZM62.83,63.14A19.81,19.81,0,0,1,57,48.8a19.4,19.4,0,0,1,5.79-14.23,19.1,19.1,0,0,1,14.24-5.9,19.08,19.08,0,0,1,14.23,5.9A19.41,19.41,0,0,1,97.1,48.8a19.82,19.82,0,0,1-5.8,14.34,19.4,19.4,0,0,1-14.23,5.79,19.42,19.42,0,0,1-14.24-5.79Z"/><path class="cls-1" d="M124.75,23.38H118V74.22h6.71V46c0-11.7,6.81-16.88,16.07-16.88V22.57c-7.63,0-12.92,3.05-16.07,9.25V23.38Z"/><path class="cls-1" d="M152.3,4.27a4.89,4.89,0,1,0,6.92,0,4.85,4.85,0,0,0-6.92,0Zm.11,74c0,8.64-3.56,11.79-11.59,11v6.5c11.69,1.12,18.3-5.28,18.3-17.48V23.38h-6.71V78.29Z"/><path class="cls-1" d="M217.07,33.35c-4.68-7.42-11.49-11.19-20.54-11.19a25.34,25.34,0,0,0-18.6,7.73A26,26,0,0,0,170.3,48.8a26,26,0,0,0,7.63,18.91,25.3,25.3,0,0,0,18.6,7.73c9.05,0,15.86-3.76,20.54-11.18v10h6.71V23.38h-6.71v10ZM182.81,63.14A19.78,19.78,0,0,1,177,48.8a19.37,19.37,0,0,1,5.8-14.23,20.11,20.11,0,0,1,28.46,0,19.37,19.37,0,0,1,5.8,14.23,19.78,19.78,0,0,1-5.8,14.34,20.38,20.38,0,0,1-28.46,0Z"/><polygon class="cls-1" points="244.72 74.22 244.72 0 238.01 0 238.01 74.22 244.72 74.22 244.72 74.22"/><path class="cls-1" d="M302.68,33.35c-4.68-7.42-11.49-11.19-20.54-11.19a25.38,25.38,0,0,0-18.61,7.73,26,26,0,0,0-7.62,18.91,26,26,0,0,0,7.62,18.91,25.34,25.34,0,0,0,18.61,7.73c9.05,0,15.86-3.76,20.54-11.18v10h6.71V23.38h-6.71v10ZM268.41,63.14a19.81,19.81,0,0,1-5.79-14.34,19.4,19.4,0,0,1,5.79-14.23,20.12,20.12,0,0,1,28.47,0,19.37,19.37,0,0,1,5.8,14.23,19.78,19.78,0,0,1-5.8,14.34,20.39,20.39,0,0,1-28.47,0Z"/><polygon class="cls-1" points="365.71 46.67 390.22 46.67 390.22 29.89 365.71 29.89 365.71 20.03 392.76 20.03 392.76 3.05 347.52 3.05 347.52 74.22 393.27 74.22 393.27 57.14 365.71 57.14 365.71 46.67 365.71 46.67"/><polygon class="cls-1" points="424.48 52.56 415.03 23.38 396.32 23.38 415.33 74.22 433.63 74.22 452.64 23.38 433.94 23.38 424.48 52.56 424.48 52.56"/><path class="cls-1" d="M505.31,55A25,25,0,0,0,506,48.7c0-7.62-2.44-14-7.42-19.11S487.42,22,479.79,22c-7.83,0-14.34,2.54-19.42,7.73a26.37,26.37,0,0,0-7.62,19.21c0,7.73,2.54,14.14,7.72,19.22s12.1,7.52,20.74,7.52c9.56,0,16.88-3.15,21.86-9.45l-12.2-8.54a13.14,13.14,0,0,1-9.25,3.56c-5.9,0-9.66-2-11.39-6.2ZM470,43.31c1.42-4.78,4.78-7.11,10-7.11,5,0,8.24,2.33,9.56,7.11Z"/><path class="cls-1" d="M544.25,22c-6.4,0-11.08,2.14-14.13,6.51V23.38H513.24V74.22h16.88v-27c0-6,3-9.26,8.34-9.26,4.57,0,7.62,2.75,7.62,8V74.22H563V43.82C563,29.69,555.23,22,544.25,22Z"/><path class="cls-1" d="M603.63,23.38H593.05V9.15l-16.87,5.08v9.15h-7.63V39.55h7.63V54.7q0,12,6.1,16.78,6.26,4.58,21.35,2.74V59c-7.63.41-10.58-.2-10.58-4.68V39.55h10.58V23.38Z"/></g></g></svg>