<?xml version="1.0" encoding="UTF-8"?>
<!DOCTYPE svg PUBLIC "-//W3C//DTD SVG 1.1//EN" "http://www.w3.org/Graphics/SVG/1.1/DTD/svg11.dtd">
<!-- Creator: CorelDRAW 2019 (64-Bit) -->
<svg xmlns="http://www.w3.org/2000/svg" xml:space="preserve" width="297mm" height="210mm" version="1.1" style="shape-rendering:geometricPrecision; text-rendering:geometricPrecision; image-rendering:optimizeQuality; fill-rule:evenodd; clip-rule:evenodd"
viewBox="0 0 29700 21000"
 xmlns:xlink="http://www.w3.org/1999/xlink"
 xmlns:xodm="http://www.corel.com/coreldraw/odm/2003">
 <defs>
  <style type="text/css">
   <![CDATA[
    .fil0 {fill:#549D96;fill-rule:nonzero}
   ]]>
  </style>
 </defs>
 <g id="Слой_x0020_1">
  <metadata id="CorelCorpID_0Corel-Layer"/>
  <g id="_1602763248">
   <polygon class="fil0" points="2967.25,10079.65 4380.75,8649.31 3993.72,8649.31 2655.93,9995.49 2655.93,8649.31 2361.46,8649.31 2361.46,11594.12 2655.93,11594.12 2655.93,10167.99 4035.76,11594.12 4422.8,11594.12 "/>
   <path class="fil0" d="M6378.99 9902.93c-193.52,-307.1 -475.38,-462.75 -849.79,-462.75 -298.7,0 -555.31,105.18 -769.85,319.76 -210.36,214.53 -315.5,475.33 -315.5,782.46 0,307.1 105.14,567.89 315.5,782.47 214.54,214.54 471.15,319.71 769.85,319.71 374.41,0 656.27,-155.65 849.79,-462.74l0 412.28 277.63 0 0 -2103.46 -277.63 0 0 412.27zm-1417.72 1232.6c-159.84,-164.05 -239.78,-361.75 -239.78,-593.13 0,-231.38 79.94,-429.11 239.78,-588.99 159.87,-164.06 357.57,-244 588.94,-244 231.39,0 429.12,79.94 589,244 159.84,159.88 239.78,357.61 239.78,588.99 0,231.38 -79.94,429.08 -239.78,593.13 -159.88,159.88 -357.61,239.82 -589,239.82 -231.37,0 -429.07,-79.94 -588.94,-239.82z"/>
   <path class="fil0" d="M7523.26 9490.66l-277.68 0 0 2103.46 277.68 0 0 -1169.51c0,-483.82 281.85,-698.36 664.67,-698.36l0 -269.23c-315.54,0 -534.26,126.2 -664.67,382.81l0 -349.17z"/>
   <path class="fil0" d="M8663.3 8699.79c-79.94,79.94 -79.94,206.13 0,286.07 79.94,79.95 206.14,79.95 286.07,0 79.91,-79.94 79.91,-206.13 0,-286.07 -79.93,-79.95 -206.13,-79.95 -286.07,0zm4.22 3062.6c0,357.57 -147.26,487.95 -479.59,454.31l0 269.23c483.77,46.31 757.23,-218.75 757.23,-723.54l0 -2271.73 -277.64 0 0 2271.73z"/>
   <path class="fil0" d="M11343.05 9902.93c-193.53,-307.1 -475.38,-462.75 -849.8,-462.75 -298.65,0 -555.26,105.18 -769.84,319.76 -210.32,214.53 -315.5,475.33 -315.5,782.46 0,307.1 105.18,567.89 315.5,782.47 214.58,214.54 471.19,319.71 769.84,319.71 374.42,0 656.27,-155.65 849.8,-462.74l0 412.28 277.63 0 0 -2103.46 -277.63 0 0 412.27zm-1417.68 1232.6c-159.89,-164.05 -239.82,-361.75 -239.82,-593.13 0,-231.38 79.93,-429.11 239.82,-588.99 159.83,-164.06 357.57,-244 588.95,-244 231.37,0 429.07,79.94 588.94,244 159.84,159.88 239.79,357.61 239.79,588.99 0,231.38 -79.95,429.08 -239.79,593.13 -159.87,159.88 -357.57,239.82 -588.94,239.82 -231.38,0 -429.12,-79.94 -588.95,-239.82z"/>
   <polygon class="fil0" points="12487.32,11594.12 12487.32,8523.1 12209.67,8523.1 12209.67,11594.12 "/>
   <path class="fil0" d="M14885.2 9902.93c-193.52,-307.1 -475.38,-462.75 -849.79,-462.75 -298.65,0 -555.27,105.18 -769.84,319.76 -210.32,214.53 -315.51,475.33 -315.51,782.46 0,307.1 105.19,567.89 315.51,782.47 214.57,214.54 471.19,319.71 769.84,319.71 374.41,0 656.27,-155.65 849.79,-462.74l0 412.28 277.63 0 0 -2103.46 -277.63 0 0 412.27zm-1417.68 1232.6c-159.88,-164.05 -239.81,-361.75 -239.81,-593.13 0,-231.38 79.93,-429.11 239.81,-588.99 159.83,-164.06 357.58,-244 588.95,-244 231.37,0 429.07,79.94 588.95,244 159.84,159.88 239.78,357.61 239.78,588.99 0,231.38 -79.94,429.08 -239.78,593.13 -159.88,159.88 -357.58,239.82 -588.95,239.82 -231.37,0 -429.12,-79.94 -588.95,-239.82z"/>
   <polygon class="fil0" points="17493.44,10454.02 18507.3,10454.02 18507.3,9759.94 17493.44,9759.94 17493.44,9351.83 18612.47,9351.83 18612.47,8649.31 16740.43,8649.31 16740.43,11594.12 18633.49,11594.12 18633.49,10887.36 17493.44,10887.36 "/>
   <polygon class="fil0" points="19924.98,10698.01 19533.77,9490.66 18759.69,9490.66 19546.39,11594.12 20303.62,11594.12 21090.3,9490.66 20316.24,9490.66 "/>
   <path class="fil0" d="M23269.43 10799.02c21.02,-79.94 29.47,-168.28 29.47,-260.83 0,-315.54 -101,-580.56 -307.1,-790.92 -206.14,-210.32 -462.75,-315.49 -778.29,-315.49 -323.94,0 -593.17,105.17 -803.49,319.71 -210.36,214.54 -315.54,479.59 -315.54,795.09 0,319.72 105.18,584.78 319.72,795.1 214.58,206.13 500.61,311.31 858.23,311.31 395.44,0 698.31,-130.42 904.44,-391.22l-504.83 -353.39c-105.13,96.74 -231.37,147.26 -382.81,147.26 -244,0 -399.66,-84.16 -471.16,-256.62l1451.36 0zm-1459.76 -483.82c58.88,-197.69 197.7,-294.47 412.23,-294.47 206.15,0 340.78,96.78 395.49,294.47l-807.72 0z"/>
   <path class="fil0" d="M24880.64 9431.78c-265.03,0 -458.54,88.34 -584.74,269.23l0 -210.35 -698.35 0 0 2103.46 698.35 0 0 -1119.03c0,-248.22 126.2,-382.82 344.95,-382.82 189.31,0 315.51,113.58 315.51,332.34l0 1169.51 698.34 0 0 -1257.86c0,-584.77 -319.71,-904.48 -774.06,-904.48z"/>
   <path class="fil0" d="M27337.45 9490.66l-437.52 0 0 -588.96 -698.35 210.36 0 378.6 -315.49 0 0 668.89 315.49 0 0 626.85c0,332.34 84.16,563.71 252.44,694.09 172.46,126.23 466.93,164.09 883.43,113.63l0 -631.05c-315.5,16.81 -437.52,-8.43 -437.52,-193.51l0 -610.01 437.52 0 0 -668.89z"/>
  </g>
 </g>
</svg>
